<?xml version="1.0" encoding="utf-8"?>
<!-- Generator: Adobe Illustrator 25.0.1, SVG Export Plug-In . SVG Version: 6.00 Build 0)  -->
<svg version="1.1" id="Calque_1" xmlns="http://www.w3.org/2000/svg" xmlns:xlink="http://www.w3.org/1999/xlink" x="0px" y="0px"
	 viewBox="0 0 4079.1 2484.3" style="enable-background:new 0 0 4079.1 2484.3;" xml:space="preserve">
<style type="text/css">
	.st0{fill:none;stroke:#ACADBF;stroke-miterlimit:10;}
</style>
<g id="Calque_2_1_">
	<g id="Calque_1-2">
		<path class="st0" d="M1683,1107.5c124.2-19.4,219.1-34.2,220-59c1-27-109.9-68.4-218-56c-125.8,14.4-234.8,100.1-225,127
			C1467.9,1141.1,1553.7,1127.7,1683,1107.5z"/>
		<path class="st0" d="M1688.2,1135.4c52-3.2,106.5-10.7,145.3-23.4c19.4-6.4,34.5-13.2,51-18.2c13.1-4,24.3-6,32.8-10.4
			c15.1-7.7,21.9-17,20.9-25.1c-3.4-26.7-35.6-54.7-91.3-72c-42.3-13.2-93.5-11.3-160.2-5.8c-38.4,3.1-73.4,8-101.9,22.2
			c-12.8,6.3-21.4,12.9-33.7,20.3c-23.5,14.1-48.3,20.5-65.1,33c-41.8,31.2-56.6,67.7-42.7,83.8c12.1,13.9,50,14,104.1,8.1
			c17.8-2,35.8-4.6,56.1-6.4C1630.9,1139,1657.7,1137.3,1688.2,1135.4z"/>
		<path class="st0" d="M1695.5,1163.8c57.8,0.9,124.4-7.5,167.2-26.3c21.4-9.4,36-19.6,55.7-26.2c15.4-5.1,28.6-6.3,38-11.9
			c16-9.5,21-21.8,19.1-30.9c-8-38.1-35.3-73.6-95.2-96.1c-46.6-17.5-102.4-9.1-190-3.6c-48.4,3.1-90.8,6-122.4,25.2
			c-14.9,9-21.9,18-36.7,28.4c-27.9,19.6-60.2,23-78.5,38.4c-42.2,35.6-47.8,81.1-24.1,99.6c18.8,14.7,61.2,14.9,114.3,9.4
			c20.4-2.1,39.4-4.9,61.5-6C1635.4,1162.4,1662.7,1163.3,1695.5,1163.8z"/>
		<path class="st0" d="M1704.2,1192.3c63.7,5.1,142.3-4.3,189.1-29.2c23.4-12.4,37.4-26.1,60.3-34.1c17.7-6.2,32.9-6.5,43.2-13.4
			c16.8-11.2,20-26.7,17.4-36.7c-13.1-49.4-35-92.6-99-120.2c-50.8-21.9-111.3-6.9-219.8-1.3c-58.4,3-108.1,4.2-142.9,28.3
			c-17,11.8-22.4,23-39.6,36.4c-32.4,25.2-72.1,25.3-92,43.8c-42.7,39.7-39.1,94.8-5.6,115.5c25.4,15.7,72.5,15.8,124.5,10.7
			c22.9-2.2,42.9-5.2,66.8-5.6C1641.4,1186,1669.3,1189.5,1704.2,1192.3z"/>
		<path class="st0" d="M1713.8,1217.3c69.6,9.5,160.2-1.1,211.1-32.1c25.4-15.4,38.9-32.5,64.9-42c20-7.3,37.2-6.7,48.4-14.9
			c17.7-12.9,19-31.5,15.6-42.6c-18.4-60.7-34.7-111.7-102.8-144.3c-55-26.3-120.2-4.7-249.5,0.9c-68.4,3-125.5,2.4-163.4,31.3
			c-19.1,14.5-22.9,28-42.6,44.5c-36.8,30.7-84.1,27.6-105.4,49.1c-43.4,43.7-30.5,108.5,13,131.4c32,16.8,83.8,16.8,134.7,11.9
			c25.4-2.4,46.5-5.6,72.2-5.1C1648.3,1206.1,1676.9,1212.3,1713.8,1217.3z"/>
		<path class="st0" d="M1724,1241.5c75.6,14,178.1,2.1,233-35c27.4-18.4,40.4-38.9,69.6-50c22.4-8.4,41.5-6.8,53.7-16.4
			c18.6-14.6,17.9-36.3,13.8-48.4c-23.9-71.8-34.4-130.8-106.6-168.4c-59.2-30.8-129.2-2.5-279.3,3.2c-78.4,3-142.8,0.7-183.9,34.3
			c-21.1,17.3-23.3,33-45.6,52.6c-41.3,36.2-96,29.8-118.9,54.5c-44.1,47.5-21.9,122.4,31.6,147.3c38.6,18,95.1,17.8,145,13.2
			c27.9-2.6,50-5.9,77.6-4.7C1655.8,1225.5,1685,1234.3,1724,1241.5z"/>
		<path class="st0" d="M1734.6,1265.7c81.5,18.5,196,5.3,254.9-37.9c29.4-21.4,41.8-45.3,74.2-57.9c24.7-9.5,45.8-7,58.9-17.9
			c19.5-16.3,16.7-41.1,12.1-54.2c-29.6-82.9-34-149.9-110.5-192.5c-63.3-35.3-138.1-0.2-309,5.4c-88.4,2.9-160-1-204.4,37.4
			c-23.2,20.1-23.8,38-48.6,60.6c-45.7,41.8-108,32.1-132.4,59.8c-44.9,51.2-13.2,136.3,50.1,163.2c45.1,19.2,106.4,18.8,155.2,14.5
			c30.4-2.7,53.6-6.1,82.9-4.3C1663.6,1244.8,1693.4,1256.3,1734.6,1265.7z"/>
		<path class="st0" d="M1745.3,1289.8c87.4,23.1,213.9,8.5,276.8-40.8c31.3-24.4,43.3-51.7,78.8-65.8c27-10.6,50.1-7.2,64.1-19.4
			c20.4-17.9,15.6-45.9,10.3-60c-35.4-93.9-33.7-169.1-114.3-216.6c-67.5-39.8-147,2-338.8,7.7c-98.3,2.9-177.3-2.7-224.9,40.4
			c-25.3,22.9-24.3,43.1-51.5,68.7c-50.2,47.3-120.1,34.2-145.8,65.2c-45.8,55-4.6,150.2,68.7,179.1
			c51.7,20.4,117.6,19.9,165.4,15.8c32.9-2.8,57.1-6.4,88.3-3.8C1671.6,1264.2,1702,1278.3,1745.3,1289.8z"/>
		<path class="st0" d="M1756.2,1313.9c93.3,27.8,231.8,11.7,298.7-43.7c33.3-27.4,44.8-58.1,83.5-73.8c29.3-11.7,54.5-7.3,69.3-21
			c21.3-19.5,14.5-50.7,8.5-65.8c-41.2-104.9-33.3-188.2-118.1-240.7c-71.7-44.3-155.9,4.2-368.5,10
			c-108.3,2.9-194.6-4.4-245.4,43.4c-27.3,25.7-24.8,48.1-54.5,76.7c-54.7,52.8-132.1,36.4-159.3,70.6c-46.7,58.7,4,164.1,87.2,195
			c58.3,21.6,128.9,21,175.6,17.1c35.4-3,60.7-6.7,93.6-3.4C1679.7,1283.5,1710.7,1300.4,1756.2,1313.9z"/>
		<path class="st0" d="M1767.1,1338c99.1,32.5,249.7,14.8,320.6-46.6c35.3-30.4,46.2-64.6,88.1-81.7c31.6-12.8,58.8-7.4,74.6-22.5
			c22.2-21.2,13.4-55.4,6.8-71.6c-47.2-115.8-32.9-207.4-121.9-264.8c-75.8-48.9-164.8,7-398.3,12.2
			c-118.3,3.1-211.8-6.1-265.9,46.5c-29.3,28.5-25.3,53.1-57.4,84.8c-59.1,58.3-144.2,38.6-172.7,75.9
			c-47.6,62.3,12.7,178.1,105.8,210.8c64.9,22.8,140.2,22.1,185.8,18.3c37.9-3.1,64.3-6.9,99-3
			C1688,1302.8,1719.6,1322.4,1767.1,1338z"/>
		<path class="st0" d="M1778.2,1362.1c105,37.3,267.6,18,342.5-49.5c37.2-33.4,47.7-71,92.8-89.7c34-14,63.1-7.6,79.8-24
			c23.1-22.8,12.2-60.2,5-77.5c-53.2-126.8-32.5-226.6-125.8-288.9c-80-53.4-173.7,9.2-428,14.5c-128.3,3.1-229-7.8-286.4,49.5
			c-31.4,31.3-25.9,58-60.4,92.8c-63.7,63.7-156.3,40.7-186.2,81.3c-48.6,65.9,21.3,192.1,124.3,226.7
			c71.5,24.1,151.6,23.2,196.1,19.6c40.5-3.3,67.8-7.2,104.3-2.6C1696.3,1322.1,1728.4,1344.4,1778.2,1362.1z"/>
		<path class="st0" d="M1789.3,1386.2c110.8,42,285.5,21.2,364.5-52.4c39.2-36.4,49.2-77.4,97.4-97.6c36.3-15.1,67.5-7.7,85-25.5
			c24.1-24.4,11.1-65,3.2-83.3c-59.2-137.6-32.1-245.8-129.6-313c-84.1-58-182.7,11.5-457.8,16.7c-138.3,3.1-246.2-9.4-306.9,52.6
			c-33.4,34.1-26.4,63.1-63.4,100.9c-68.2,69.2-168.4,42.8-199.7,86.6c-49.6,69.6,29.9,206,142.9,242.6
			c78.1,25.3,162.8,24.4,206.3,20.9c43-3.4,71.4-7.4,109.7-2.1C1704.7,1341.4,1737.4,1366.5,1789.3,1386.2z"/>
		<path class="st0" d="M1800.4,1410.3c116.6,46.8,303.4,24.4,386.4-55.3c41.2-39.4,50.6-83.8,102.1-105.5
			c38.6-16.2,71.8-7.8,90.2-27c25-26,10-69.8,1.5-89.1c-65.3-148.5-31.8-265.1-133.4-337.1c-88.2-62.5-191.6,13.7-487.5,19
			c-148.3,3.1-263.4-11.1-327.4,55.6c-35.4,36.9-26.9,68.1-66.3,108.9c-72.7,74.7-180.5,44.9-213.1,92
			c-50.7,73.2,38.6,220,161.4,258.5c84.7,26.5,174.1,25.5,216.5,22.2c45.5-3.6,74.9-7.6,115.1-1.7
			C1713,1360.7,1746.3,1388.5,1800.4,1410.3z"/>
		<path class="st0" d="M1811.6,1434.3c122.4,51.7,321.3,27.6,408.3-58.1c43.2-42.4,52.1-90.2,106.7-113.5
			c40.9-17.3,76.2-8,95.5-28.5c26-27.7,8.8-74.5-0.3-94.9c-71.4-159.3-31.4-284.3-137.2-361.2c-92.3-67.1-200.5,16-517.3,21.2
			c-158.3,3.1-280.6-12.8-347.9,58.6c-37.4,39.7-27.4,73.1-69.3,117c-77.1,80.2-192.7,47-226.6,97.3c-51.7,76.8,47.2,234,180,274.4
			c91.3,27.8,185.4,26.7,226.7,23.4c48-3.7,78.5-7.9,120.4-1.3C1721.5,1380.1,1755.3,1410.6,1811.6,1434.3z"/>
		<path class="st0" d="M1822.7,1458.4c128.2,56.5,339.2,30.8,430.2-61c45.2-45.4,53.6-96.7,111.3-121.4c43.2-18.4,80.5-8.1,100.7-30
			c26.9-29.3,7.7-79.3-2.1-100.7c-77.5-170.1-30.9-303.5-141.1-385.3c-96.5-71.6-209.4,18.2-547.1,23.5
			c-168.3,3.1-297.9-14.4-368.4,61.7c-39.4,42.6-27.9,78.1-72.3,125c-81.6,85.8-204.9,49.1-240,102.7
			c-52.8,80.4,55.9,248,198.5,290.3c97.9,29,196.7,27.8,236.9,24.7c50.5-3.9,82-8.1,125.8-0.8
			C1729.9,1399.4,1764.3,1432.7,1822.7,1458.4z"/>
		<path class="st0" d="M1833.9,1482.5c134,61.3,357.1,34,452.1-63.9c47.1-48.4,55-103.1,116-129.3c45.6-19.5,84.9-8.2,105.9-31.5
			c27.8-30.9,6.6-84.1-3.8-106.6c-83.7-180.9-30.5-322.8-144.9-409.4c-100.6-76.2-218.3,20.5-576.8,25.8
			c-178.3,3-315.1-16.1-388.9,64.7c-41.5,45.4-28.4,83.1-75.2,133.1c-86.1,91.3-217,51.2-253.5,108.1c-53.9,84,64.5,262,217.1,306.2
			c104.6,30.3,208.1,29,247.1,26c53.1-4,85.6-8.3,131.1-0.4C1738.4,1418.7,1773.3,1454.7,1833.9,1482.5z"/>
		<path class="st0" d="M1845.1,1506.5c139.8,66.2,375,37.2,474-66.8c49.1-51.4,56.5-109.5,120.6-137.3
			c47.9-20.6,89.2-8.3,111.2-33.1c28.8-32.5,5.4-88.8-5.6-112.4c-89.8-191.7-30.1-342-148.7-433.5c-104.7-80.8-227.2,22.8-606.6,28
			c-188.3,3-332.2-17.8-409.4,67.7c-43.5,48.2-28.9,88.1-78.2,141.1c-90.5,96.8-229.2,53.3-267,113.4c-54.9,87.6,73.2,276,235.6,322
			c111.2,31.5,219.4,30.1,257.4,27.3c55.6-4.2,89.1-8.6,136.5,0C1746.8,1438,1782.4,1476.8,1845.1,1506.5z"/>
		<path class="st0" d="M1856.4,1530.6c145.5,71.1,392.9,40.4,495.9-69.7c51.1-54.4,57.9-115.9,125.3-145.2
			c50.2-21.7,93.6-8.4,116.4-34.6c29.8-34.1,4.3-93.6-7.4-118.2c-96-202.5-29.7-361.2-152.5-457.6c-108.8-85.4-236.2,25-636.3,30.3
			c-198.3,3-349.4-19.4-430,70.8c-45.5,51-29.4,93.1-81.2,149.2c-95,102.3-241.4,55.4-280.4,118.8c-56.1,91.2,81.9,290,254.2,337.9
			c117.8,32.8,230.6,31.3,267.6,28.6c58.1-4.3,92.7-8.8,141.8,0.4C1755.3,1457.4,1791.4,1498.9,1856.4,1530.6z"/>
		<path class="st0" d="M1867.6,1554.7c151.3,75.9,410.8,43.5,517.8-72.6c53.1-57.4,59.4-122.4,129.9-153.1
			c52.5-22.8,98-8.6,121.6-36.1c30.7-35.7,3.2-98.3-9.1-124c-102.2-213.3-29.3-380.4-156.4-481.7c-112.9-89.9-245.1,27.3-666.1,32.5
			c-208.3,3-366.6-21.1-450.4,73.8c-47.5,53.8-29.9,98.2-84.1,157.2c-99.5,107.8-253.6,57.5-293.9,124.1
			c-57.2,94.8,90.5,304,272.8,353.8c124.4,34,241.9,32.5,277.8,29.8c60.6-4.5,96.2-9,147.2,0.9
			C1763.8,1476.7,1800.4,1521,1867.6,1554.7z"/>
		<path class="st0" d="M1878.8,1578.7c157,80.8,428.7,46.7,539.8-75.5c55-60.4,60.8-128.8,134.5-161.1
			c54.9-23.9,102.3-8.7,126.8-37.6c31.7-37.3,2-103.1-10.9-129.8c-108.4-224-28.8-399.7-160.2-505.8c-117-94.5-254,29.5-695.8,34.8
			c-218.2,3-383.8-22.8-470.9,76.8c-49.5,56.6-30.4,103.2-87.1,165.3c-104,113.4-265.9,59.6-307.3,129.5
			c-58.3,98.3,99.2,317.9,291.3,369.7c131,35.3,253.2,33.7,288,31.1c63.1-4.6,99.8-9.3,152.6,1.3
			C1772.3,1496,1809.5,1543,1878.8,1578.7z"/>
		<path class="st0" d="M1890.1,1602.8c162.7,85.7,446.6,49.9,561.7-78.4c57-63.4,62.3-135.2,139.2-169c57.2-25,106.7-8.8,132-39.1
			c32.6-39,0.9-107.9-12.7-135.7c-114.6-234.8-28.4-418.9-164-529.9c-121.1-99.1-262.9,31.8-725.6,37c-228.2,3-401-24.4-491.4,79.9
			c-51.5,59.4-30.9,108.2-90.1,173.3c-108.4,118.9-278.1,61.7-320.8,134.9c-59.4,101.9,107.8,332,309.9,385.6
			c137.6,36.5,264.6,34.8,298.2,32.4c65.6-4.8,103.3-9.5,157.9,1.7C1780.8,1515.4,1818.5,1565.1,1890.1,1602.8z"/>
		<path class="st0" d="M1901.3,1626.9c168.4,90.6,464.5,53.1,583.6-81.3c59-66.4,63.8-141.6,143.8-176.9
			c59.5-26.2,111-8.9,137.3-40.6c33.6-40.6-0.2-112.6-14.4-141.5c-120.8-245.6-28-438.2-167.8-554c-125.2-103.7-271.8,34-755.3,39.3
			c-238.2,3-418.2-26.1-511.9,82.9c-53.5,62.3-31.4,113.2-93,181.4c-112.9,124.4-290.3,63.7-334.2,140.2
			c-60.6,105.5,116.5,345.9,328.4,401.5c144.2,37.8,275.9,36,308.4,33.7c68.2-4.9,106.8-9.7,163.3,2.2
			C1789.3,1534.7,1827.6,1587.2,1901.3,1626.9z"/>
		<path class="st0" d="M1912.6,1650.9c174.1,95.5,482.4,56.3,605.5-84.2c61-69.4,65.2-148,148.4-184.9
			c61.8-27.3,115.4-9.1,142.5-42.1c34.5-42.2-1.4-117.4-16.2-147.3c-127-256.3-27.5-457.4-171.7-578.1
			c-129.3-108.3-280.8,36.3-785.1,41.6c-248.2,2.9-435.4-27.8-532.4,85.9c-55.5,65.1-31.9,118.2-96,189.5
			c-117.4,129.9-302.6,65.8-347.7,145.6c-61.7,109.1,125.1,359.9,347,417.3c150.8,39,287.2,37.2,318.7,35
			c70.7-5.1,110.4-9.9,168.6,2.6C1797.8,1554,1836.6,1609.2,1912.6,1650.9z"/>
		<path class="st0" d="M1923.9,1675c179.8,100.4,500.3,59.5,627.4-87.1c63-72.4,66.7-154.5,153.1-192.8
			c64.1-28.4,119.8-9.2,147.7-43.6c35.5-43.8-2.5-122.2-18-153.1c-133.3-267-27.1-476.7-175.5-602.2
			c-133.4-112.8-289.7,38.6-814.9,43.8c-258.2,2.9-452.6-29.4-552.9,89c-57.6,67.9-32.4,123.2-99,197.5
			C1070,1061.9,877,994.4,830.7,1077.4c-62.9,112.7,133.8,373.9,365.5,433.2c157.4,40.3,298.5,38.4,328.9,36.2
			c73.2-5.2,113.9-10.2,174,3C1806.4,1573.4,1845.7,1631.3,1923.9,1675z"/>
		<path class="st0" d="M1935.1,1699c185.6,105.4,518.2,62.7,649.3-89.9c64.9-75.4,68.2-160.9,157.7-200.8
			c66.5-29.5,124.2-9.3,152.9-45.2c36.5-45.4-3.7-126.9-19.7-158.9c-139.5-277.8-26.7-495.9-179.3-626.3
			c-137.5-117.4-298.6,40.8-844.6,46.1c-268.2,2.9-469.8-31.1-573.5,92c-59.6,70.7-32.9,128.2-101.9,205.6
			c-126.3,141-327.1,70-374.6,156.3c-64,116.3,142.4,387.9,384.1,449.1c164,41.5,309.8,39.6,339.1,37.5
			c75.7-5.4,117.5-10.4,179.4,3.4C1814.9,1592.7,1854.7,1653.4,1935.1,1699z"/>
		<path class="st0" d="M1946.4,1723.1c191.2,110.3,536.1,65.9,671.2-92.8c66.9-78.4,69.6-167.3,162.4-208.7
			c68.8-30.6,128.5-9.4,158.2-46.7c37.4-47-4.8-131.7-21.5-164.7c-145.8-288.5-26.2-515.1-183.1-650.4
			c-141.6-122-307.5,43.1-874.4,48.3c-278.2,2.9-487-32.8-593.9,95.1c-61.6,73.6-33.4,133.3-104.9,213.6
			c-130.8,146.5-339.4,72-388.1,161.7c-65.2,119.9,151.1,401.9,402.6,465c170.7,42.8,321.1,40.8,349.3,38.8
			c78.2-5.5,121-10.6,184.7,3.9C1823.4,1612.1,1863.8,1675.5,1946.4,1723.1z"/>
		<path class="st0" d="M1957.7,1747.1c196.9,115.2,554,69,693.2-95.7c68.9-81.4,71.1-173.7,167-216.6
			c71.1-31.7,132.9-9.5,163.4-48.2c38.4-48.6-5.9-136.4-23.3-170.6c-152-299.2-25.8-534.4-187-674.5
			c-145.6-126.6-316.4,45.3-904.1,50.6c-288.2,2.9-504.2-34.4-614.5,98.1c-63.6,76.4-33.9,138.3-107.9,221.7
			c-135.2,152-351.6,74.1-401.5,167c-66.3,123.5,159.8,415.9,421.2,480.9c177.3,44.1,332.4,42,359.6,40.1
			c80.8-5.7,124.5-10.8,190.1,4.3C1831.9,1631.4,1872.9,1697.5,1957.7,1747.1z"/>
		<path class="st0" d="M1969,1771.2c202.6,120.1,571.9,72.2,715.1-98.6c70.9-84.4,72.6-180.2,171.6-224.6
			c73.4-32.8,137.3-9.7,168.6-49.7c39.3-50.3-7.1-141.2-25-176.4C2841,912,2974,668.3,2808.5,523.4
			c-149.7-131.2-325.4,47.6-933.9,52.8c-298.2,2.9-521.3-36.1-635,101.1c-65.6,79.2-34.4,143.3-110.8,229.7
			c-139.7,157.5-363.9,76.2-415,172.4c-67.5,127.1,168.4,429.9,439.7,496.8c183.9,45.3,343.7,43.2,369.8,41.3
			c83.3-5.8,128.1-11,195.4,4.7C1840.5,1650.7,1881.9,1719.6,1969,1771.2z"/>
		<path class="st0" d="M1980.2,1795.3c208.3,125,589.8,75.4,737-101.5c72.9-87.5,74-186.6,176.3-232.5
			c75.7-33.9,141.6-9.8,173.8-51.2c40.3-51.9-8.2-146-26.8-182.2C2876.1,907.2,3015.7,655,2846,505.2
			c-153.8-135.8-334.3,49.8-963.6,55.1c-308.2,2.9-538.5-37.8-655.5,104.2c-67.6,82-34.9,148.3-113.8,237.8
			c-144.2,163-376.2,78.2-428.5,177.7c-68.7,130.7,177.1,444,458.3,512.7c190.5,46.6,355,44.3,380,42.6
			c85.8-5.9,131.6-11.2,200.8,5.2C1849,1670.1,1891,1741.7,1980.2,1795.3z"/>
		<path class="st0" d="M1991.5,1819.3c214,130,607.6,78.6,758.9-104.4c74.8-90.4,75.5-193,180.9-240.4c78.1-35,146-9.9,179.1-52.7
			c41.3-53.5-9.3-150.7-28.6-188c-170.8-331.4-24.4-592.1-198.4-746.8c-157.9-140.4-343.2,52.1-993.4,57.3
			c-318.2,2.9-555.7-39.4-676,107.2c-69.6,84.8-35.4,153.3-116.8,245.8c-148.6,168.6-388.4,80.3-441.9,183.1
			c-69.8,134.3,185.8,458,476.8,528.5c197.1,47.8,366.3,45.5,390.2,43.9c88.3-6.1,135.2-11.5,206.1,5.6
			C1857.5,1689.4,1900.1,1763.7,1991.5,1819.3z"/>
		<path class="st0" d="M2002.8,1843.4c219.7,134.9,625.6,81.8,780.8-107.3c76.8-93.4,76.9-199.4,185.6-248.4
			c80.4-36.2,150.4-10,184.3-54.2c42.2-55.1-10.5-155.5-30.3-193.8c-177-342.1-24-611.4-202.3-770.9
			c-162-145-352.1,54.3-1023.1,59.6c-328.2,2.8-572.9-41.1-696.5,110.2c-71.6,87.7-35.9,158.3-119.7,253.9
			c-153.1,174.1-400.7,82.4-455.4,188.5c-71,137.8,194.4,472,495.4,544.4c203.8,49.1,377.6,46.7,400.4,45.2
			c90.8-6.2,138.7-11.7,211.5,6C1866,1708.8,1909.1,1785.8,2002.8,1843.4z"/>
		<path class="st0" d="M2014.1,1867.4c225.3,139.8,643.4,85,802.7-110.2c78.8-96.4,78.4-205.8,190.2-256.3
			c82.7-37.3,154.8-10.1,189.5-55.8c43.2-56.7-11.6-160.2-32.1-199.6c-183.3-352.8-23.6-630.6-206.1-795
			c-166.1-149.6-361,56.6-1052.9,61.9c-338.2,2.8-590.1-42.8-717,113.3c-73.6,90.5-36.4,163.4-122.7,261.9
			c-157.6,179.6-413,84.4-468.8,193.8c-72.2,141.4,203.1,486,513.9,560.3c210.4,50.3,388.9,47.9,410.6,46.4
			c93.4-6.4,142.2-11.9,216.9,6.4C1874.6,1728.1,1918.2,1807.9,2014.1,1867.4z"/>
		<path class="st0" d="M2025.4,1891.5c231,144.8,661.4,88.2,824.6-113.1c80.8-99.4,79.9-212.3,194.9-264.2
			c85-38.4,159.1-10.2,194.7-57.3c44.2-58.3-12.8-165-33.9-205.4c-189.6-363.5-23.1-649.9-209.9-819.1
			c-170.2-154.1-369.9,58.8-1082.6,64.1c-348.2,2.8-607.3-44.4-737.5,116.3c-75.6,93.3-36.9,168.4-125.6,270
			c-162,185.1-425.3,86.5-482.3,199.2c-73.4,145,211.7,500,532.5,576.2c217,51.6,400.2,49.1,420.9,47.7
			c95.9-6.5,145.8-12.1,222.2,6.9C1883.1,1747.4,1927.2,1830,2025.4,1891.5z"/>
		<path class="st0" d="M2036.7,1915.5c236.7,149.7,679.2,91.4,846.6-116c82.7-102.4,81.3-218.7,199.5-272.2
			c87.3-39.5,163.5-10.4,200-58.8c45.1-59.9-13.9-169.8-35.6-211.3c-195.8-374.2-22.6-669.1-213.7-843.2
			c-174.2-158.7-378.9,61.2-1112.4,66.4c-358.1,2.8-624.4-46.1-758,119.3c-77.6,96.1-37.4,173.4-128.6,278
			c-166.5,190.6-437.6,88.6-495.8,204.5c-74.6,148.7,220.4,514,551,592.1c223.6,52.8,411.5,50.3,431.1,49
			c98.4-6.7,149.3-12.3,227.6,7.3C1891.7,1766.8,1936.3,1852,2036.7,1915.5z"/>
		<path class="st0" d="M2048,1939.6c242.3,154.6,697.2,94.6,868.5-118.8c84.7-105.4,82.8-225.1,204.1-280.1
			c89.7-40.6,167.9-10.5,205.2-60.3c46.1-61.5-15-174.5-37.4-217.1c-202.1-384.9-22.2-688.3-217.6-867.3
			c-178.3-163.3-387.8,63.4-1142.2,68.6c-368.1,2.8-641.6-47.8-778.5,122.4c-79.6,98.9-37.8,178.4-131.6,286.1
			c-171,196.2-449.9,90.6-509.2,209.9c-75.7,152.2,229,528,569.6,608c230.2,54.1,422.8,51.5,441.3,50.3
			c100.9-6.8,152.9-12.5,232.9,7.7C1900.2,1786.1,1945.4,1874.1,2048,1939.6z"/>
		<path class="st0" d="M2059.3,1963.6c248,159.6,715,97.8,890.4-121.7c86.7-108.4,84.2-231.5,208.8-288
			c92-41.7,172.2-10.6,210.4-61.8c47.1-63.2-16.2-179.3-39.2-222.9c-208.4-395.6-21.8-707.6-221.4-891.4
			c-182.4-167.9-396.7,65.6-1171.9,70.9c-378.1,2.8-658.8-49.4-799,125.4c-81.6,101.8-38.3,183.4-134.6,294.2
			c-175.4,201.7-462.2,92.7-522.7,215.2c-76.9,155.8,237.7,542,588.1,623.8c236.8,55.3,434.1,52.7,451.5,51.6
			c103.4-7,156.4-12.8,238.3,8.2C1908.7,1805.5,1954.4,1896.2,2059.3,1963.6z"/>
		<path class="st0" d="M2070.6,1987.7c253.7,164.5,732.9,100.9,912.3-124.6c88.7-111.4,85.7-237.9,213.4-296
			c94.3-42.8,176.6-10.7,215.6-63.3c48-64.8-17.3-184-40.9-228.7c-214.7-406.3-21.3-726.8-225.2-915.5
			c-186.5-172.5-405.6,67.9-1201.6,73.2c-388.1,2.8-676-51.1-819.5,128.5c-83.6,104.6-38.8,188.4-137.5,302.2
			C807.2,1070.5,512.7,958.1,451,1084c-78.1,159.4,246.4,556,606.7,639.7c243.4,56.6,445.4,53.9,461.7,52.8
			c105.9-7.1,159.9-13,243.6,8.6C1917.3,1824.8,1963.5,1918.3,2070.6,1987.7z"/>
		<path class="st0" d="M2081.8,2011.7c259.3,169.4,750.8,104.1,934.2-127.5c90.7-114.4,87.2-244.4,218.1-303.9
			c96.6-43.9,181-10.8,220.9-64.8c49-66.4-18.4-188.8-42.7-234.5c-220.9-417-20.8-746.1-229-939.6
			c-190.5-177.1-414.5,70.1-1231.4,75.4c-398.1,2.8-693.2-52.8-840,131.5c-85.6,107.4-39.3,193.4-140.5,310.3
			c-184.4,212.7-486.8,96.8-549.6,226c-79.3,163,255,570,625.3,655.6c250.1,57.8,456.7,55.1,471.9,54.1c108.5-7.3,163.5-13.2,249,9
			C1925.8,1844.2,1972.6,1940.3,2081.8,2011.7z"/>
		<path class="st0" d="M2093.1,2035.8c265,174.4,768.7,107.3,956.1-130.4c92.7-117.4,88.7-250.8,222.7-311.8
			c98.9-45,185.4-11,226.1-66.3c50-68-19.6-193.5-44.4-240.4c-227.2-427.7-20.4-765.3-232.9-963.7
			c-194.6-181.7-423.4,72.4-1261.2,77.7c-408.1,2.7-710.3-54.4-860.5,134.5c-87.6,110.2-39.8,198.5-143.4,318.3
			c-188.8,218.2-499.1,98.9-563,231.3c-80.5,166.6,263.5,584.7,643.8,671.5c256.6,59.6,468,56.3,482.2,55.4
			c111-7.4,167-13.4,254.4,9.4C1934.3,1863.5,1981.6,1962.4,2093.1,2035.8z"/>
		<path class="st0" d="M2104.4,2059.8c270.6,179.3,786.6,110.5,978-133.3c94.7-120.4,90.1-257.2,227.4-319.8
			c101.3-46.1,189.8-11.1,231.3-67.8c50.9-69.6-20.7-198.3-46.2-246.2c-233.5-438.4-20-784.6-236.7-987.8
			c-198.7-186.3-432.4,74.6-1290.9,79.9c-418.1,2.7-727.1-55.8-881,137.6c-89.4,113.2-40.3,203.5-146.4,326.4
			c-193.3,223.8-511.4,101-576.5,236.7c-81.7,170.2,272.2,598.6,662.4,687.4c263.2,60.8,479.4,57.5,492.4,56.7
			c113.5-7.6,170.6-13.6,259.7,9.9C1942.9,1882.9,1990.7,1984.5,2104.4,2059.8z"/>
		<path class="st0" d="M2115.7,2084c276.3,184.2,804.5,113.7,1000-136.2c96.6-123.4,91.6-263.6,232-327.7
			c103.6-47.2,194.1-11.2,236.5-69.4c51.9-71.2-21.8-203.1-48-252c-239.8-449.1-19.1-804.3-240.6-1011.9
			C3093.3,95.5,2854.4,363.7,1975,369c-428.1,2.7-744.3-57.5-901.5,140.6c-91.4,116-40.8,208.5-149.4,334.4
			c-197.8,229.3-523.7,103-590,242c-82.8,173.9,280.9,612.6,681,703.3c269.8,62,490.6,58.7,502.6,58c116-7.7,174.1-13.8,265.1,10.3
			C1951.4,1902.3,1999.8,2006.6,2115.7,2084z"/>
		<path class="st0" d="M2127,2108c281.9,189.2,822.4,116.9,1021.9-139.1c98.6-126.4,93-270,236.6-335.6
			c105.9-48.3,198.5-11.3,241.8-70.9c52.9-72.8-23-207.8-49.8-257.8c-246.1-459.8-18.7-823.5-244.3-1036
			C3126.7,72.8,2883,347.7,1982.7,353c-438.1,2.7-761.6-59.1-922,143.6c-93.4,118.8-41.3,213.5-152.3,342.5
			c-202.2,234.8-536,105.1-603.4,247.4c-84.1,177.4,289.6,626.5,699.5,719.2c276.4,63.2,502,60,512.8,59.2
			c118.5-7.9,177.6-14.1,270.4,10.7C1960,1921.6,2008.8,2028.7,2127,2108z"/>
		<path class="st0" d="M2138.3,2132.1c287.6,194.1,840.3,120.1,1043.8-142c100.5-129.4,94.5-276.5,241.2-343.6
			c108.2-49.5,202.9-11.4,247-72.4c53.8-74.4-24.1-212.6-51.5-263.6c-252.4-470.5-18.2-842.7-248.2-1060.1
			C3160,50,2911.6,331.8,1990.5,337.1c-448.1,2.7-778.8-60.8-942.5,146.7c-95.4,121.7-41.9,218.6-155.3,350.6
			C685.9,1074.6,344.4,941.4,275.8,1087c-85.3,181,298.2,640.5,718,735c283.1,64.4,513.3,61.2,523,60.5
			c121.1-8,181.2-14.3,275.8,11.2C1968.5,1941,2017.9,2050.8,2138.3,2132.1z"/>
		<path class="st0" d="M2149.6,2156.1c293.2,199.1,858.2,123.2,1065.7-144.9c102.5-132.4,95.9-282.9,245.9-351.5
			c110.5-50.6,207.3-11.5,252.2-73.9c54.8-76-25.2-217.3-53.3-269.5c-258.6-481.2-17.8-861.9-252-1084.2
			c-214.7-205-468,83.7-1410,88.9c-458.1,2.7-796-62.5-963,149.7c-97.4,124.5-42.3,223.5-158.3,358.6
			c-211.2,245.8-560.6,109.2-630.3,258.1c-86.4,184.7,307,654.4,736.6,750.9c289.7,65.7,524.6,62.3,533.2,61.8
			c123.6-8.2,184.7-14.3,281.1,11.6C1977,1960.6,2027,2072.8,2149.6,2156.1z"/>
		<path class="st0" d="M2160.9,2180.2c298.9,204,876.1,126.4,1087.6-147.8c104.5-135.4,97.4-289.3,250.5-359.4
			c112.9-51.7,211.6-11.7,257.4-75.4c55.8-77.7-26.4-222.1-55-275.2C3436.5,830.4,3684,441.2,3445.6,214
			c-218.8-209.5-477,85.9-1439.7,91.2c-468.1,2.6-813.2-64.2-983.5,152.7C923,585.2,979.6,686.5,861.2,824.6
			C645.5,1075.9,288.3,935.8,217.4,1088c-87.7,188.2,315.6,668.4,755.1,766.8c296.3,66.9,535.9,63.6,543.5,63.1
			c126.1-8.3,188.2-14.5,286.5,12C1985.5,1979.9,2036,2094.9,2160.9,2180.2z"/>
		<path class="st0" d="M2172.2,2204.2c304.5,208.9,894,129.6,1109.5-150.6c106.5-138.4,98.9-295.7,255.2-367.4
			c115.2-52.8,216.1-11.7,262.6-76.9c56.9-79.2-27.5-226.8-56.8-281.1c-271.2-502.5-17-900.3-259.6-1132.4
			c-222.9-214.1-485.9,88.2-1469.5,93.5c-478.1,2.6-830.4-65.9-1004,155.8c-101.5,130.1-43.3,233.6-164.2,374.7
			C625.3,1076.5,260.2,933,188.2,1088.5c-88.9,191.9,324.2,682.3,773.7,782.7c302.9,68.1,547.2,64.8,553.7,64.3
			c128.6-8.5,191.7-14.8,291.9,12.4C1994,1999.3,2045.1,2117,2172.2,2204.2z"/>
		<path class="st0" d="M2183.5,2228.1c309.8,214.5,911.9,132.8,1131.4-153.5c108.4-141.4,100.3-302.2,259.8-375.3
			c117.5-53.9,220.5-11.8,267.9-78.4c57.8-80.8-28.7-231.6-58.6-286.9c-277.5-513.2-16.6-919.5-263.5-1156.5
			c-227.1-218.6-494.8,90.4-1499.2,95.7c-488.1,2.6-847.6-67.6-1024.5,158.8C893.4,564.8,953,670.5,829.7,814.7
			C605.1,1077,232.1,930.1,159,1088.9c-90.1,195.5,332.9,696.3,792.2,798.6c309.6,69.3,558.5,66,563.9,65.6
			c131.1-8.6,195.3-15,297.2,12.9C2002.6,2018.4,2053.9,2139.1,2183.5,2228.1z"/>
		<path class="st0" d="M2194.8,2252.2c315.5,219.3,929.8,136,1153.3-156.4c110.5-144.5,101.8-308.6,264.5-383.3
			c119.8-55,224.9-12,273.1-80c58.8-82.4-29.9-236.3-60.4-292.7c-284.7-523.4-16.2-938.7-267.3-1180.6
			c-231.2-223.2-503.7,92.7-1529,98c-498.1,2.6-864.8-69.3-1045,161.9c-105.5,135.7-44.3,243.6-170.1,390.8
			c-229,267.9-609.8,117.5-684.1,279.6c-91.3,199.1,341.6,710.2,810.8,814.5c316.2,70.5,569.8,67.2,574.1,66.9
			c133.6-8.8,198.8-15.3,302.6,13.3C2011.1,2037.7,2063.1,2161.2,2194.8,2252.2z"/>
		<path class="st0" d="M2206.1,2276.3c321.2,224.1,947.8,139.2,1175.3-159.4c112.4-147.5,103.3-315,269.1-391.2
			c122.2-56.1,229.2-12.1,278.3-81.4c59.7-84.1-31-241-62.1-298.6C3576,811.5,3851,387.8,3595.6,141
			C3360.3-86.7,3083,236,2036.9,241.3c-508.1,2.6-882-71-1065.5,164.9C863.8,544.7,926.6,654.8,798.3,805
			c-233.5,273.4-622.5,119.4-697.6,284.9C7.8,1292.4,450.9,1814.1,930,1920.3c322.8,71.8,581.1,68.4,584.3,68.2
			c136.2-8.9,202.4-15.5,307.9,13.7C2019.8,2057.1,2072.2,2183.2,2206.1,2276.3z"/>
		<path class="st0" d="M2217.4,2300.3c326.9,229,965.7,142.4,1197.2-162.2c114.4-150.5,104.7-321.4,273.7-399.1
			c124.5-57.2,233.6-12.2,283.6-83c60.7-85.7-32.1-245.8-63.9-304.3c-296.8-545-15.3-977.2-274.9-1228.8
			c-239.4-232.3-521.5,97.2-1588.5,102.5c-518,2.6-899.2-72.7-1086,167.9C849,534.5,913.3,646.9,782.5,800.1
			c-238,278.9-634.7,121.5-711.1,290.3c-93.9,206.2,358.9,738.1,847.9,846.2c329.4,73,592.4,69.6,594.6,69.4
			c138.7-9.1,205.9-15.7,313.3,14.1C2028.3,2076.4,2081.3,2205.3,2217.4,2300.3z"/>
		<path class="st0" d="M2228.7,2324.4c332.7,233.8,983.5,145.6,1219.1-165.1c116.4-153.4,106.2-327.8,278.4-407.1
			c126.8-58.3,237.9-12.3,288.8-84.5c61.6-87.3-33.2-250.6-65.7-310.2c-302.9-555.8-14.9-996.3-278.8-1252.9
			c-243.4-236.9-530.4,99.5-1618.2,104.7c-528,2.6-916.4-74.4-1106.5,171C834.2,524.5,900,639,766.8,795.3
			C524.3,1079.8,119.9,918.9,42.3,1091c-95,209.8,367.6,752.1,866.4,862.1c336.1,74.2,603.7,70.8,604.8,70.7
			c141.2-9.2,209.5-16,318.6,14.6C2036.8,2095.7,2090.4,2227.3,2228.7,2324.4z"/>
		<path class="st0" d="M2240,2348.5c338.4,238.6,1001.4,148.8,1241-168c118.3-156.5,107.7-334.3,283-415
			c129.1-59.5,242.3-12.5,294-86c62.6-89-34.3-255.4-67.4-316c-309-566.7-14.5-1015.6-282.6-1277c-247.6-241.4-539.4,101.7-1648,107
			c-538,2.6-933.7-76.1-1127,174c-113.6,146.9-46.3,263.7-182,423c-246.9,290-659.1,125.7-738,301c-96.1,213.5,376.3,766,885,878
			c342.7,75.4,615,72,615,72c144-1.8,213-16.2,324,15C2045.4,2115,2099.5,2249.4,2240,2348.5z"/>
	</g>
</g>
</svg>
